<svg width="613" height="1143" viewBox="0 0 613 1143" fill="none" xmlns="http://www.w3.org/2000/svg">
<path d="M191.229 216.166C227.039 216.166 256.069 187.103 256.069 151.252C256.069 115.402 227.039 86.3388 191.229 86.3388C155.419 86.3388 126.389 115.402 126.389 151.252C126.389 187.103 155.419 216.166 191.229 216.166Z" stroke="#64FFBE" stroke-width="13" stroke-linejoin="round"/>
<path d="M191.743 292.414C271.61 292.414 336.347 228.522 336.347 149.707C336.347 70.8915 271.61 7 191.743 7C111.876 7 47.1392 70.8915 47.1392 149.707" stroke="#3FBAFF" stroke-width="13" stroke-linecap="round" stroke-linejoin="round"/>
<path d="M606 788.024H498.139C463.627 788.024 431.689 799.977 405.67 820.275M497.758 1136.29C410.32 1136.29 339.435 1058.56 339.435 962.685C339.312 930.907 347.357 899.632 362.798 871.866L497.758 1136.29Z" stroke="#D289FF" stroke-width="13" stroke-linecap="round" stroke-linejoin="round"/>
<path d="M75.4424 779.351C37.6426 779.351 7 749.001 7 711.552C7 674.103 37.6426 643.772 75.4424 643.772C113.242 643.772 143.885 674.122 143.885 711.57V918.882M339.949 313.021C307.266 313.021 280.77 339.547 280.77 372.268C280.77 404.989 307.266 431.515 339.949 431.515C372.633 431.515 399.129 404.989 399.129 372.268V313.021H339.949Z" stroke="#64FFBE" stroke-width="13" stroke-linecap="round" stroke-linejoin="round"/>
<path d="M66.1795 472.429C33.496 472.429 7 498.559 7 530.795C7 563.032 33.496 589.162 66.1795 589.162C98.8631 589.162 125.359 563.032 125.359 530.795V292.414" stroke="#D289FF" stroke-width="13" stroke-linecap="round" stroke-linejoin="round"/>
<path d="M276.139 783.903C268.104 783.91 260.146 782.332 252.72 779.26C245.294 776.188 238.545 771.681 232.858 765.998C227.172 760.315 222.659 753.566 219.578 746.136C216.497 738.707 214.908 730.743 214.901 722.699V548.359C214.908 540.315 216.497 532.351 219.578 524.921C222.659 517.492 227.172 510.743 232.858 505.06C238.545 499.376 245.294 494.87 252.72 491.798C260.146 488.726 268.104 487.148 276.139 487.155V487.155C284.174 487.148 292.132 488.726 299.558 491.798C306.984 494.87 313.733 499.376 319.419 505.06C325.106 510.743 329.618 517.492 332.7 524.921C335.781 532.351 337.37 540.315 337.377 548.359V722.699C337.37 730.743 335.781 738.707 332.7 746.136C329.618 753.566 325.106 760.315 319.419 765.998C313.733 771.681 306.984 776.188 299.558 779.26C292.132 782.332 284.174 783.91 276.139 783.903V783.903Z" stroke="#3FBAFF" stroke-width="13" stroke-linejoin="round"/>
<path d="M75.6997 867.363H70.7492C62.3735 867.367 54.0806 869.023 46.344 872.236C38.6074 875.448 31.5786 880.155 25.659 886.087C19.7393 892.019 15.0446 899.06 11.8431 906.809C8.64164 914.557 6.99595 922.861 7.00001 931.246C6.99182 948.181 13.7035 964.425 25.6586 976.406C37.6137 988.386 53.8329 995.121 70.7482 995.13H218.051C234.966 995.121 251.185 988.386 263.14 976.406C275.095 964.425 281.807 948.181 281.799 931.246V931.246C281.807 914.312 275.095 898.068 263.14 886.087C251.185 874.107 234.966 867.372 218.051 867.363H213.1" stroke="#3FBAFF" stroke-width="13" stroke-linecap="round" stroke-linejoin="round"/>
<path d="M47.6548 222.348V411.937" stroke="#64FFBE" stroke-width="13" stroke-linecap="round" stroke-linejoin="round"/>
</svg>
